<svg width="21" height="20" viewBox="0 0 21 20" fill="none" xmlns="http://www.w3.org/2000/svg">
    <path
        d="M20.8889 7.48365C20.719 6.96234 20.2681 6.58335 19.725 6.50424L14.2226 5.70471L11.7639 0.736713C11.2771 -0.245571 9.66808 -0.245571 9.18125 0.736713L6.72256 5.70471L1.23325 6.50424C0.691617 6.58335 0.240805 6.96367 0.0708665 7.48519C-0.099072 8.00517 0.0421383 8.57709 0.435273 8.96006L4.41656 12.8406L3.47737 18.3155C3.38522 18.8556 3.60709 19.403 4.05061 19.7256C4.49568 20.0467 5.08483 20.0887 5.56879 19.8337L10.472 17.2481L15.3896 19.8337C15.6 19.9446 15.8305 19.9994 16.0595 19.9994C16.3576 19.9994 16.6557 19.9057 16.9078 19.7259C17.3516 19.4017 17.5732 18.8558 17.4811 18.3157L16.5434 12.8408L20.5247 8.96028C20.9178 8.57841 21.0588 8.00517 20.8889 7.48365Z"
        fill="black" />
</svg>