<svg width="9" height="9" viewBox="0 0 9 9" fill="none" xmlns="http://www.w3.org/2000/svg">
    <path
        d="M8.62241 3.924C8.55475 3.71644 8.37526 3.56555 8.159 3.53405L5.96825 3.21572L4.98932 1.23772C4.79549 0.846623 4.15487 0.846623 3.96104 1.23772L2.98212 3.21572L0.79656 3.53405C0.580908 3.56555 0.401418 3.71697 0.333757 3.92461C0.266097 4.13164 0.322319 4.35935 0.478845 4.51183L2.06399 6.05685L1.69005 8.23669C1.65336 8.45172 1.7417 8.66966 1.91828 8.79812C2.09549 8.92596 2.33006 8.94268 2.52274 8.84115L4.47496 7.81172L6.4329 8.84115C6.51666 8.88531 6.60843 8.90713 6.69958 8.90713C6.81827 8.90713 6.93697 8.86983 7.03736 8.79821C7.21403 8.66913 7.30228 8.45181 7.26559 8.23677L6.89227 6.05694L8.47741 4.51192C8.63394 4.35988 8.69007 4.13164 8.62241 3.924Z"
        fill="black" />
</svg>