<svg width="1080" height="392" opacity = "0.3" viewBox="0 0 1080 392" fill="none" xmlns="http://www.w3.org/2000/svg">
<g style="mix-blend-mode:color-burn" clip-path="url(#clip0_264_4)">
<path d="M1080 392H0V0H1080V392ZM1.39695 391.192H1078.6V0.809577H1.39695V391.192Z" fill="#B3B3B3"/>
<path d="M1079.3 371.633H0.698364V372.442H1079.3V371.633Z" fill="#B3B3B3"/>
<path d="M1079.3 352.073H0.698364V352.883H1079.3V352.073Z" fill="#B3B3B3"/>
<path d="M1079.3 332.513H0.698364V333.323H1079.3V332.513Z" fill="#B3B3B3"/>
<path d="M1079.3 312.954H0.698364V313.763H1079.3V312.954Z" fill="#B3B3B3"/>
<path d="M1079.3 293.394H0.698364V294.204H1079.3V293.394Z" fill="#B3B3B3"/>
<path d="M1079.3 273.834H0.698364V274.644H1079.3V273.834Z" fill="#B3B3B3"/>
<path d="M1079.3 254.275H0.698364V255.085H1079.3V254.275Z" fill="#B3B3B3"/>
<path d="M1079.3 234.716H0.698364V235.525H1079.3V234.716Z" fill="#B3B3B3"/>
<path d="M1079.3 215.156H0.698364V215.965H1079.3V215.156Z" fill="#B3B3B3"/>
<path d="M1079.3 195.596H0.698364V196.406H1079.3V195.596Z" fill="#B3B3B3"/>
<path d="M1079.3 176.037H0.698364V176.846H1079.3V176.037Z" fill="#B3B3B3"/>
<path d="M1079.3 156.477H0.698364V157.286H1079.3V156.477Z" fill="#B3B3B3"/>
<path d="M1079.3 136.917H0.698364V137.727H1079.3V136.917Z" fill="#B3B3B3"/>
<path d="M1079.3 117.358H0.698364V118.167H1079.3V117.358Z" fill="#B3B3B3"/>
<path d="M1079.3 97.7981H0.698364V98.6077H1079.3V97.7981Z" fill="#B3B3B3"/>
<path d="M1079.3 78.2385H0.698364V79.0481H1079.3V78.2385Z" fill="#B3B3B3"/>
<path d="M1079.3 58.679H0.698364V59.4885H1079.3V58.679Z" fill="#B3B3B3"/>
<path d="M1079.3 39.1194H0.698364V39.929H1079.3V39.1194Z" fill="#B3B3B3"/>
<path d="M1079.3 19.5596H0.698364V20.3691H1079.3V19.5596Z" fill="#B3B3B3"/>
<path d="M1047.32 0.404785H1045.92V391.597H1047.32V0.404785Z" fill="#B3B3B3"/>
<path d="M1014.63 0.404785H1013.23V391.597H1014.63V0.404785Z" fill="#B3B3B3"/>
<path d="M981.946 0.404785H980.549V391.597H981.946V0.404785Z" fill="#B3B3B3"/>
<path d="M949.261 0.404785H947.865V391.597H949.261V0.404785Z" fill="#B3B3B3"/>
<path d="M916.574 0.404785H915.177V391.597H916.574V0.404785Z" fill="#B3B3B3"/>
<path d="M883.889 0.404785H882.492V391.597H883.889V0.404785Z" fill="#B3B3B3"/>
<path d="M851.204 0.404785H849.807V391.597H851.204V0.404785Z" fill="#B3B3B3"/>
<path d="M818.519 0.404785H817.123V391.597H818.519V0.404785Z" fill="#B3B3B3"/>
<path d="M785.835 0.404785H784.438V391.597H785.835V0.404785Z" fill="#B3B3B3"/>
<path d="M753.15 0.404785H751.753V391.597H753.15V0.404785Z" fill="#B3B3B3"/>
<path d="M720.466 0.404785H719.069V391.597H720.466V0.404785Z" fill="#B3B3B3"/>
<path d="M687.781 0.404785H686.384V391.597H687.781V0.404785Z" fill="#B3B3B3"/>
<path d="M655.096 0.404785H653.699V391.597H655.096V0.404785Z" fill="#B3B3B3"/>
<path d="M622.412 0.404785H621.015V391.597H622.412V0.404785Z" fill="#B3B3B3"/>
<path d="M589.727 0.404785H588.33V391.597H589.727V0.404785Z" fill="#B3B3B3"/>
<path d="M557.042 0.404785H555.646V391.597H557.042V0.404785Z" fill="#B3B3B3"/>
<path d="M524.354 0.404785H522.958V391.597H524.354V0.404785Z" fill="#B3B3B3"/>
<path d="M491.67 0.404785H490.273V391.597H491.67V0.404785Z" fill="#B3B3B3"/>
<path d="M458.985 0.404785H457.588V391.597H458.985V0.404785Z" fill="#B3B3B3"/>
<path d="M426.301 0.404785H424.904V391.597H426.301V0.404785Z" fill="#B3B3B3"/>
<path d="M393.616 0.404785H392.219V391.597H393.616V0.404785Z" fill="#B3B3B3"/>
<path d="M360.931 0.404785H359.534V391.597H360.931V0.404785Z" fill="#B3B3B3"/>
<path d="M328.247 0.404785H326.85V391.597H328.247V0.404785Z" fill="#B3B3B3"/>
<path d="M295.562 0.404785H294.165V391.597H295.562V0.404785Z" fill="#B3B3B3"/>
<path d="M262.877 0.404785H261.48V391.597H262.877V0.404785Z" fill="#B3B3B3"/>
<path d="M230.193 0.404785H228.796V391.597H230.193V0.404785Z" fill="#B3B3B3"/>
<path d="M197.508 0.404785H196.111V391.597H197.508V0.404785Z" fill="#B3B3B3"/>
<path d="M164.823 0.404785H163.427V391.597H164.823V0.404785Z" fill="#B3B3B3"/>
<path d="M132.139 0.404785H130.742V391.597H132.139V0.404785Z" fill="#B3B3B3"/>
<path d="M99.4508 0.404785H98.0538V391.597H99.4508V0.404785Z" fill="#B3B3B3"/>
<path d="M66.7662 0.404785H65.3693V391.597H66.7662V0.404785Z" fill="#B3B3B3"/>
<path d="M34.0815 0.404785H32.6846V391.597H34.0815V0.404785Z" fill="#B3B3B3"/>
</g>
<defs>
<clipPath id="clip0_264_4">
<rect width="1080" height="392" fill="white"/>
</clipPath>
</defs>
</svg>
