<svg width="71" height="72" viewBox="0 0 71 72" fill="none" xmlns="http://www.w3.org/2000/svg">
<path d="M49.2056 9.24145C44.1994 3.56049 36.8665 -0.0177286 28.6957 6.60649e-05C13.7096 0.0326897 1.34675 12.5676 1.51135 27.5537C1.52766 29.0084 1.65816 30.435 1.89246 31.8274C2.58348 35.9128 2.37291 40.1138 1.06945 44.0464C0.403631 46.0602 0.0314247 48.2074 0.00176689 50.4377C-0.149488 62.2119 9.43 71.9233 21.2071 71.9233C23.8333 71.9233 26.3483 71.4458 28.6691 70.5724C33.2126 68.8626 38.035 68.0307 42.8885 68.0782C42.9819 68.0782 43.0739 68.0782 43.1673 68.0782C58.2483 68.0782 70.718 55.5819 70.6883 40.5008C70.669 31.2609 66.0973 23.0902 59.095 18.1136C55.4709 15.5378 52.1447 12.575 49.2056 9.23849V9.24145Z" fill="#FBEA55"/>
<path d="M45.5781 35.3137C44.6548 35.2216 42.6234 35.2216 42.6234 33.9288C42.6234 32.1749 45.2085 29.8666 49.3634 27.3736C50.6556 26.5424 53.334 25.2501 53.334 23.4956C53.334 22.1106 52.318 21.0952 50.1946 21.3721C48.1632 21.649 45.0237 23.0339 40.8695 26.5424C36.5298 30.1435 32.4677 36.1449 32.4677 42.0537C32.4677 48.0552 36.5298 54.0566 43.0856 54.0566C48.348 54.0566 52.8724 50.0865 52.8724 44.6388C52.8718 40.484 50.0098 35.6833 45.5781 35.3137Z" fill="#3D4753"/>
<path d="M32.5988 32.7177C31.8404 32.3213 31.0086 32.0619 30.111 31.9873C29.1877 31.8952 27.1563 31.8952 27.1563 30.6024C27.1563 28.8484 29.7414 26.5402 33.8963 24.0472C35.1891 23.2159 37.8664 21.9237 37.8664 20.1692C37.8664 18.7842 36.8504 17.7688 34.7269 18.0457C32.6955 18.3226 29.5561 19.7075 25.4018 23.2159C21.0628 26.8171 17 32.8185 17 38.7279C17 44.7293 21.0622 50.7308 27.618 50.7308C29.1591 50.7308 30.6362 50.388 31.9553 49.7696C30.6618 47.431 29.9723 44.7253 29.9723 42.0544C29.9728 38.7564 31.0349 35.5581 32.5988 32.7177Z" fill="#3D4753"/>
</svg>
