<svg width="29" height="29" viewBox="0 0 29 29" fill="none" xmlns="http://www.w3.org/2000/svg">
<path d="M19.5911 4.0035C17.5979 1.74164 14.6783 0.316977 11.4252 0.324062C5.45846 0.337051 0.536206 5.3278 0.601742 11.2945C0.608236 11.8737 0.660193 12.4417 0.753478 12.9961C1.02861 14.6226 0.944771 16.2953 0.425799 17.861C0.160705 18.6628 0.0125117 19.5177 0.000703484 20.4057C-0.0595184 25.0936 3.75454 28.9602 8.44358 28.9602C9.4892 28.9602 10.4905 28.7701 11.4145 28.4223C13.2235 27.7416 15.1436 27.4104 17.076 27.4292C17.1132 27.4292 17.1498 27.4292 17.187 27.4292C23.1915 27.4292 28.1562 22.4538 28.1444 16.4494C28.1367 12.7705 26.3165 9.51735 23.5286 7.53593C22.0856 6.51039 20.7613 5.33075 19.5911 4.00232V4.0035Z" fill="#FBEA55"/>
<path d="M18.1468 14.3842C17.7792 14.3475 16.9704 14.3475 16.9704 13.8328C16.9704 13.1345 17.9997 12.2154 19.6539 11.2228C20.1685 10.8919 21.2348 10.3774 21.2348 9.67884C21.2348 9.12742 20.8303 8.72314 19.9849 8.83338C19.1761 8.94362 17.9261 9.49503 16.2721 10.8919C14.5443 12.3257 12.9269 14.7152 12.9269 17.0677C12.9269 19.4572 14.5443 21.8467 17.1545 21.8467C19.2497 21.8467 21.051 20.266 21.051 18.097C21.0508 16.4427 19.9113 14.5313 18.1468 14.3842Z" fill="#3D4753"/>
<path d="M12.9792 13.3505C12.6772 13.1927 12.3461 13.0895 11.9887 13.0597C11.6211 13.0231 10.8123 13.0231 10.8123 12.5083C10.8123 11.81 11.8415 10.891 13.4958 9.89839C14.0105 9.56744 15.0765 9.05293 15.0765 8.35437C15.0765 7.80296 14.672 7.39868 13.8265 7.50892C13.0177 7.61915 11.7677 8.17057 10.1137 9.56744C8.38613 11.0012 6.76855 13.3907 6.76855 15.7435C6.76855 18.133 8.3859 20.5224 10.9961 20.5224C11.6097 20.5224 12.1978 20.386 12.723 20.1397C12.208 19.2086 11.9334 18.1313 11.9334 17.068C11.9337 15.7549 12.3565 14.4815 12.9792 13.3505Z" fill="#3D4753"/>
</svg>
